<svg xmlns="http://www.w3.org/2000/svg" class="icon icon-tabler icon-tabler-user" width="44" height="44" viewBox="0 0 24 24" stroke-width="1.5" stroke="#f1f1f1" fill="none" stroke-linecap="round" stroke-linejoin="round"
>

  <path d="M8.707 1.5a1 1 0 0 0-1.414 0L.646 8.146a.5.5 0 0 0 .708.708L2 8.207V13.5A1.5 1.5 0 0 0 3.5 15h9a1.5 1.5 0 0 0 1.5-1.5V8.207l.646.647a.5.5 0 0 0 .708-.708L13 5.793V2.5a.5.5 0 0 0-.5-.5h-1a.5.5 0 0 0-.5.5v1.293zM13 7.207V13.5a.5.5 0 0 1-.5.5h-9a.5.5 0 0 1-.5-.5V7.207l5-5z"/>
   
</svg>